<?xml version="1.0" encoding="UTF-8" standalone="no"?>
<!DOCTYPE svg PUBLIC "-//W3C//DTD SVG 1.1//EN" "http://www.w3.org/Graphics/SVG/1.1/DTD/svg11.dtd">
<svg width="100%" height="100%" viewBox="0 0 1365 1365" version="1.1" xmlns="http://www.w3.org/2000/svg" xmlns:xlink="http://www.w3.org/1999/xlink" xml:space="preserve" xmlns:serif="http://www.serif.com/" style="fill-rule:evenodd;clip-rule:evenodd;stroke-linejoin:round;stroke-miterlimit:2;">
    <g transform="matrix(1,0,0,1,-1740.64,-559.892)">
        <g transform="matrix(144,0,0,144,1780.46,1450.26)">
            <path d="M0.072,0L0.203,0L0.203,-0.309L0.54,-0.309L0.54,0L0.673,0L0.673,-0.727L0.54,-0.727L0.54,-0.419L0.203,-0.419L0.203,-0.727L0.072,-0.727L0.072,0Z" style="fill:white;fill-rule:nonzero;"/>
        </g>
        <g transform="matrix(144,0,0,144,1887.59,1450.26)">
            <path d="M0.223,0.011C0.309,0.011 0.36,-0.029 0.383,-0.075L0.387,-0.075L0.387,0L0.511,0L0.511,-0.365C0.511,-0.509 0.393,-0.553 0.289,-0.553C0.175,-0.553 0.087,-0.501 0.058,-0.402L0.178,-0.385C0.191,-0.422 0.227,-0.454 0.29,-0.454C0.35,-0.454 0.382,-0.424 0.382,-0.37L0.382,-0.368C0.382,-0.331 0.344,-0.329 0.248,-0.319C0.142,-0.308 0.04,-0.276 0.04,-0.153C0.04,-0.046 0.119,0.011 0.223,0.011ZM0.256,-0.083C0.203,-0.083 0.164,-0.108 0.164,-0.155C0.164,-0.205 0.207,-0.225 0.265,-0.233C0.299,-0.238 0.366,-0.246 0.383,-0.26L0.383,-0.196C0.383,-0.135 0.334,-0.083 0.256,-0.083Z" style="fill:white;fill-rule:nonzero;"/>
        </g>
        <g transform="matrix(144,0,0,144,1970.33,1450.26)">
            <path d="M0.066,0L0.195,0L0.195,-0.321C0.195,-0.39 0.247,-0.439 0.317,-0.439C0.339,-0.439 0.366,-0.435 0.377,-0.431L0.377,-0.55C0.365,-0.552 0.345,-0.553 0.331,-0.553C0.268,-0.553 0.216,-0.518 0.196,-0.455L0.191,-0.455L0.191,-0.545L0.066,-0.545L0.066,0Z" style="fill:white;fill-rule:nonzero;"/>
        </g>
        <g transform="matrix(144,0,0,144,2027.45,1450.26)">
            <path d="M0.066,0L0.195,0L0.195,-0.321C0.195,-0.39 0.247,-0.439 0.317,-0.439C0.339,-0.439 0.366,-0.435 0.377,-0.431L0.377,-0.55C0.365,-0.552 0.345,-0.553 0.331,-0.553C0.268,-0.553 0.216,-0.518 0.196,-0.455L0.191,-0.455L0.191,-0.545L0.066,-0.545L0.066,0Z" style="fill:white;fill-rule:nonzero;"/>
        </g>
        <g transform="matrix(144,0,0,144,2087.02,1450.26)">
            <path d="M0.146,0.203C0.246,0.203 0.304,0.152 0.335,0.066L0.554,-0.545L0.417,-0.545L0.29,-0.134L0.285,-0.134L0.159,-0.545L0.023,-0.545L0.221,0.011L0.21,0.041C0.185,0.101 0.148,0.106 0.092,0.09L0.062,0.19C0.08,0.197 0.111,0.203 0.146,0.203Z" style="fill:white;fill-rule:nonzero;"/>
        </g>
        <g transform="matrix(144,0,0,144,1780.46,1594.26)">
            <path d="M0.225,0L0.355,0L0.501,-0.51L0.506,-0.51L0.652,0L0.782,0L0.987,-0.727L0.846,-0.727L0.714,-0.192L0.708,-0.192L0.568,-0.727L0.439,-0.727L0.299,-0.193L0.292,-0.193L0.161,-0.727L0.02,-0.727L0.225,0Z" style="fill:white;fill-rule:nonzero;"/>
        </g>
        <g transform="matrix(144,0,0,144,1925.43,1594.26)">
            <path d="M0.066,0L0.195,0L0.195,-0.545L0.066,-0.545L0.066,0ZM0.131,-0.623C0.172,-0.623 0.205,-0.654 0.205,-0.692C0.205,-0.731 0.172,-0.762 0.131,-0.762C0.089,-0.762 0.056,-0.731 0.056,-0.692C0.056,-0.654 0.089,-0.623 0.131,-0.623Z" style="fill:white;fill-rule:nonzero;"/>
        </g>
        <g transform="matrix(144,0,0,144,1962.96,1594.26)">
            <path d="M0.066,-0.727L0.066,-0.135C0.066,-0.04 0.115,0.006 0.219,0.004C0.252,0.003 0.274,-0.002 0.289,-0.007L0.268,-0.104C0.261,-0.102 0.254,-0.1 0.237,-0.1C0.205,-0.099 0.195,-0.115 0.195,-0.156L0.195,-0.727L0.066,-0.727Z" style="fill:white;fill-rule:nonzero;"/>
        </g>
        <g transform="matrix(144,0,0,144,2004.28,1594.26)">
            <path d="M0.497,-0.401C0.479,-0.494 0.406,-0.553 0.278,-0.553C0.146,-0.553 0.057,-0.488 0.057,-0.387C0.057,-0.308 0.106,-0.255 0.211,-0.233L0.304,-0.214C0.354,-0.203 0.377,-0.183 0.377,-0.152C0.377,-0.114 0.337,-0.086 0.276,-0.086C0.217,-0.086 0.178,-0.112 0.167,-0.161L0.042,-0.149C0.058,-0.049 0.142,0.011 0.276,0.011C0.412,0.011 0.509,-0.06 0.509,-0.163C0.509,-0.241 0.458,-0.289 0.355,-0.311L0.262,-0.331C0.207,-0.343 0.185,-0.363 0.185,-0.394C0.185,-0.431 0.226,-0.457 0.279,-0.457C0.339,-0.457 0.37,-0.424 0.38,-0.388L0.497,-0.401Z" style="fill:white;fill-rule:nonzero;"/>
        </g>
        <g transform="matrix(144,0,0,144,2083.34,1594.26)">
            <path d="M0.304,0.011C0.464,0.011 0.565,-0.102 0.565,-0.271C0.565,-0.44 0.464,-0.553 0.304,-0.553C0.144,-0.553 0.043,-0.44 0.043,-0.271C0.043,-0.102 0.144,0.011 0.304,0.011ZM0.305,-0.092C0.216,-0.092 0.173,-0.171 0.173,-0.271C0.173,-0.371 0.216,-0.451 0.305,-0.451C0.392,-0.451 0.435,-0.371 0.435,-0.271C0.435,-0.171 0.392,-0.092 0.305,-0.092Z" style="fill:white;fill-rule:nonzero;"/>
        </g>
        <g transform="matrix(144,0,0,144,2170.88,1594.26)">
            <path d="M0.195,-0.32C0.195,-0.398 0.242,-0.444 0.31,-0.444C0.376,-0.444 0.416,-0.4 0.416,-0.327L0.416,0L0.545,0L0.545,-0.347C0.545,-0.478 0.471,-0.553 0.358,-0.553C0.276,-0.553 0.22,-0.513 0.195,-0.453L0.189,-0.453L0.189,-0.545L0.066,-0.545L0.066,0L0.195,0L0.195,-0.32Z" style="fill:white;fill-rule:nonzero;"/>
        </g>
        <g transform="matrix(144,0,0,144,1780.46,1738.26)">
            <path d="M0.318,0C0.54,0 0.671,-0.137 0.671,-0.364C0.671,-0.591 0.54,-0.727 0.323,-0.727L0.072,-0.727L0.072,0L0.318,0ZM0.203,-0.114L0.203,-0.613L0.316,-0.613C0.463,-0.613 0.54,-0.531 0.54,-0.364C0.54,-0.197 0.463,-0.114 0.312,-0.114L0.203,-0.114Z" style="fill:white;fill-rule:nonzero;"/>
        </g>
        <g transform="matrix(144,0,0,144,1884.77,1738.26)">
            <path d="M0.414,-0.229C0.414,-0.146 0.354,-0.105 0.298,-0.105C0.236,-0.105 0.195,-0.149 0.195,-0.218L0.195,-0.545L0.066,-0.545L0.066,-0.198C0.066,-0.067 0.141,0.007 0.248,0.007C0.33,0.007 0.387,-0.036 0.412,-0.097L0.418,-0.097L0.418,0L0.542,0L0.542,-0.545L0.414,-0.545L0.414,-0.229Z" style="fill:white;fill-rule:nonzero;"/>
        </g>
        <g transform="matrix(144,0,0,144,1972.37,1738.26)">
            <path d="M0.195,-0.32C0.195,-0.398 0.242,-0.444 0.31,-0.444C0.376,-0.444 0.416,-0.4 0.416,-0.327L0.416,0L0.545,0L0.545,-0.347C0.545,-0.478 0.471,-0.553 0.358,-0.553C0.276,-0.553 0.22,-0.513 0.195,-0.453L0.189,-0.453L0.189,-0.545L0.066,-0.545L0.066,0L0.195,0L0.195,-0.32Z" style="fill:white;fill-rule:nonzero;"/>
        </g>
        <g transform="matrix(144,0,0,144,2060.17,1738.26)">
            <path d="M0.223,0.011C0.309,0.011 0.36,-0.029 0.383,-0.075L0.387,-0.075L0.387,0L0.511,0L0.511,-0.365C0.511,-0.509 0.393,-0.553 0.289,-0.553C0.175,-0.553 0.087,-0.501 0.058,-0.402L0.178,-0.385C0.191,-0.422 0.227,-0.454 0.29,-0.454C0.35,-0.454 0.382,-0.424 0.382,-0.37L0.382,-0.368C0.382,-0.331 0.344,-0.329 0.248,-0.319C0.142,-0.308 0.04,-0.276 0.04,-0.153C0.04,-0.046 0.119,0.011 0.223,0.011ZM0.256,-0.083C0.203,-0.083 0.164,-0.108 0.164,-0.155C0.164,-0.205 0.207,-0.225 0.265,-0.233C0.299,-0.238 0.366,-0.246 0.383,-0.26L0.383,-0.196C0.383,-0.135 0.334,-0.083 0.256,-0.083Z" style="fill:white;fill-rule:nonzero;"/>
        </g>
        <g transform="matrix(144,0,0,144,2142.91,1738.26)">
            <path d="M0.179,0L0.313,0L0.415,-0.369L0.423,-0.369L0.525,0L0.659,0L0.813,-0.545L0.682,-0.545L0.587,-0.164L0.582,-0.164L0.484,-0.545L0.354,-0.545L0.256,-0.162L0.251,-0.162L0.156,-0.545L0.025,-0.545L0.179,0Z" style="fill:white;fill-rule:nonzero;"/>
        </g>
        <g transform="matrix(144,0,0,144,2263.49,1738.26)">
            <path d="M0.223,0.011C0.309,0.011 0.36,-0.029 0.383,-0.075L0.387,-0.075L0.387,0L0.511,0L0.511,-0.365C0.511,-0.509 0.393,-0.553 0.289,-0.553C0.175,-0.553 0.087,-0.501 0.058,-0.402L0.178,-0.385C0.191,-0.422 0.227,-0.454 0.29,-0.454C0.35,-0.454 0.382,-0.424 0.382,-0.37L0.382,-0.368C0.382,-0.331 0.344,-0.329 0.248,-0.319C0.142,-0.308 0.04,-0.276 0.04,-0.153C0.04,-0.046 0.119,0.011 0.223,0.011ZM0.256,-0.083C0.203,-0.083 0.164,-0.108 0.164,-0.155C0.164,-0.205 0.207,-0.225 0.265,-0.233C0.299,-0.238 0.366,-0.246 0.383,-0.26L0.383,-0.196C0.383,-0.135 0.334,-0.083 0.256,-0.083Z" style="fill:white;fill-rule:nonzero;"/>
        </g>
        <g transform="matrix(144,0,0,144,2343.37,1738.26)">
            <path d="M0.146,0.203C0.246,0.203 0.304,0.152 0.335,0.066L0.554,-0.545L0.417,-0.545L0.29,-0.134L0.285,-0.134L0.159,-0.545L0.023,-0.545L0.221,0.011L0.21,0.041C0.185,0.101 0.148,0.106 0.092,0.09L0.062,0.19C0.08,0.197 0.111,0.203 0.146,0.203Z" style="fill:white;fill-rule:nonzero;"/>
        </g>
        <g transform="matrix(144,0,0,144,1780.46,1882.26)">
            <rect x="0.072" y="-0.727" width="0.132" height="0.727" style="fill:white;fill-rule:nonzero;"/>
        </g>
        <g transform="matrix(144,0,0,144,1820.04,1882.26)">
            <rect x="0.072" y="-0.727" width="0.132" height="0.727" style="fill:white;fill-rule:nonzero;"/>
        </g>
        <g transform="matrix(144,0,0,144,1859.62,1882.26)">
            <rect x="0.072" y="-0.727" width="0.132" height="0.727" style="fill:white;fill-rule:nonzero;"/>
        </g>
    </g>
</svg>
