<?xml version="1.0" encoding="UTF-8" standalone="no"?><!DOCTYPE svg PUBLIC "-//W3C//DTD SVG 1.1//EN" "http://www.w3.org/Graphics/SVG/1.1/DTD/svg11.dtd"><svg width="100%" height="100%" viewBox="0 0 334 260" version="1.1" xmlns="http://www.w3.org/2000/svg" xmlns:xlink="http://www.w3.org/1999/xlink" xml:space="preserve" xmlns:serif="http://www.serif.com/" style="fill-rule:evenodd;clip-rule:evenodd;stroke-linecap:square;stroke-linejoin:round;stroke-miterlimit:1.5;"><g transform="matrix(0.24,0,0,0.24,-96.6927,-126.756)"><g transform="matrix(400,0,0,400,581.165,807.35)"><path d="M0.47,-0.338l-0.34,0l0,0.338l-0.036,0l0,-0.698l0.036,0l0,0.327l0.34,0l0,-0.327l0.036,0l0,0.698l-0.036,0l0,-0.338Z" style="fill:#231f20;fill-rule:nonzero;"/></g><g transform="matrix(400,0,0,400,841.165,807.35)"><path d="M0.14,0l-0.036,0l0,-0.698l0.246,0c0.059,0 0.104,0.017 0.135,0.051c0.03,0.035 0.045,0.081 0.045,0.14c0,0.057 -0.015,0.102 -0.044,0.136c-0.029,0.034 -0.072,0.052 -0.129,0.053l-0.029,0l0.2,0.318l-0.042,0l-0.198,-0.317l-0.148,0l0,0.317Zm0.21,-0.348c0.024,0 0.045,-0.004 0.062,-0.011c0.018,-0.007 0.033,-0.017 0.044,-0.029c0.012,-0.013 0.021,-0.027 0.026,-0.044c0.006,-0.017 0.009,-0.034 0.009,-0.053l0,-0.044c0,-0.018 -0.003,-0.035 -0.009,-0.052c-0.005,-0.017 -0.014,-0.031 -0.026,-0.043c-0.011,-0.013 -0.026,-0.023 -0.044,-0.03c-0.017,-0.007 -0.038,-0.011 -0.062,-0.011l-0.21,0l0,0.317l0.21,0Z" style="fill:#231f20;fill-rule:nonzero;"/></g><g transform="matrix(400,0,0,400,1101.16,807.35)"><path d="M0.14,0l-0.036,0l0,-0.698l0.246,0c0.059,0 0.104,0.017 0.135,0.051c0.03,0.035 0.045,0.081 0.045,0.14c0,0.057 -0.015,0.102 -0.044,0.136c-0.029,0.034 -0.072,0.052 -0.129,0.053l-0.029,0l0.2,0.318l-0.042,0l-0.198,-0.317l-0.148,0l0,0.317Zm0.21,-0.348c0.024,0 0.045,-0.004 0.062,-0.011c0.018,-0.007 0.033,-0.017 0.044,-0.029c0.012,-0.013 0.021,-0.027 0.026,-0.044c0.006,-0.017 0.009,-0.034 0.009,-0.053l0,-0.044c0,-0.018 -0.003,-0.035 -0.009,-0.052c-0.005,-0.017 -0.014,-0.031 -0.026,-0.043c-0.011,-0.013 -0.026,-0.023 -0.044,-0.03c-0.017,-0.007 -0.038,-0.011 -0.062,-0.011l-0.21,0l0,0.317l0.21,0Z" style="fill:#231f20;fill-rule:nonzero;"/></g><g transform="matrix(400,0,0,400,1361.16,807.35)"><path d="M0.282,0l0,-0.289l-0.257,-0.409l0.042,0l0.232,0.371l0.003,0l0.232,-0.371l0.041,0l-0.257,0.409l0,0.289l-0.036,0Z" style="fill:#231f20;fill-rule:nonzero;"/></g><g transform="matrix(400,0,0,400,581.165,1207.35)"><path d="M0.117,0l-0.064,-0.698l0.033,0l0.061,0.661l0.005,0l0.127,-0.455l0.043,0l0.127,0.455l0.005,0l0.061,-0.661l0.032,0l-0.064,0.698l-0.058,0l-0.123,-0.445l-0.004,0l-0.123,0.445l-0.058,0Z" style="fill:#231f20;fill-rule:nonzero;"/></g><g transform="matrix(400,0,0,400,841.165,1207.35)"><path d="M0.14,0l0,-0.698l0.036,0l0,0.665l0.354,0l0,0.033l-0.39,0Z" style="fill:#231f20;fill-rule:nonzero;"/></g><g transform="matrix(400,0,0,400,1101.16,1207.35)"><path d="M0.303,0.012c-0.031,0 -0.059,-0.003 -0.083,-0.009c-0.025,-0.006 -0.047,-0.014 -0.066,-0.024c-0.019,-0.011 -0.036,-0.023 -0.051,-0.038c-0.015,-0.014 -0.029,-0.029 -0.042,-0.046l0.028,-0.022c0.025,0.033 0.053,0.058 0.086,0.078c0.032,0.019 0.075,0.028 0.128,0.028c0.061,0 0.108,-0.014 0.141,-0.041c0.033,-0.027 0.05,-0.066 0.05,-0.118c0,-0.026 -0.004,-0.048 -0.012,-0.066c-0.008,-0.018 -0.019,-0.033 -0.033,-0.045c-0.014,-0.012 -0.03,-0.021 -0.049,-0.028c-0.019,-0.006 -0.04,-0.011 -0.062,-0.014l-0.08,-0.013c-0.035,-0.006 -0.064,-0.016 -0.087,-0.028c-0.023,-0.012 -0.042,-0.026 -0.055,-0.042c-0.013,-0.016 -0.023,-0.033 -0.028,-0.053c-0.006,-0.02 -0.009,-0.04 -0.009,-0.061c0,-0.061 0.02,-0.106 0.06,-0.135c0.04,-0.03 0.094,-0.045 0.161,-0.045c0.057,0 0.103,0.009 0.138,0.028c0.035,0.018 0.062,0.042 0.083,0.072l-0.027,0.023c-0.021,-0.029 -0.046,-0.052 -0.077,-0.067c-0.031,-0.015 -0.07,-0.023 -0.119,-0.023c-0.057,0 -0.102,0.012 -0.134,0.036c-0.032,0.025 -0.048,0.061 -0.048,0.11c0,0.025 0.004,0.046 0.012,0.063c0.007,0.017 0.018,0.032 0.032,0.043c0.013,0.012 0.029,0.021 0.048,0.028c0.019,0.007 0.039,0.012 0.062,0.016l0.079,0.013c0.036,0.006 0.066,0.015 0.089,0.027c0.023,0.012 0.042,0.027 0.056,0.044c0.014,0.016 0.024,0.035 0.029,0.055c0.005,0.02 0.008,0.04 0.008,0.061c0,0.063 -0.02,0.111 -0.061,0.144c-0.041,0.033 -0.096,0.049 -0.167,0.049Z" style="fill:#231f20;fill-rule:nonzero;"/></g><g transform="matrix(400,0,0,400,1361.16,1207.35)"><path d="M0.132,-0.65l-0.004,0l0,0.65l-0.034,0l0,-0.698l0.052,0l0.322,0.648l0.004,0l0,-0.648l0.034,0l0,0.698l-0.052,0l-0.322,-0.65Z" style="fill:#231f20;fill-rule:nonzero;"/></g><g transform="matrix(400,0,0,400,581.165,1607.35)"><path d="M0.105,-0.698l0.185,0c0.084,0 0.145,0.029 0.184,0.088c0.039,0.059 0.058,0.146 0.058,0.261c0,0.115 -0.019,0.202 -0.058,0.261c-0.039,0.059 -0.1,0.088 -0.184,0.088l-0.185,0l0,-0.698Zm0.185,0.665c0.07,0 0.121,-0.025 0.153,-0.074c0.033,-0.049 0.049,-0.118 0.049,-0.205l0,-0.074c0,-0.087 -0.016,-0.156 -0.049,-0.205c-0.032,-0.049 -0.083,-0.074 -0.153,-0.074l-0.149,0l0,0.632l0.149,0Z" style="fill:#231f20;fill-rule:nonzero;"/></g><g transform="matrix(400,0,0,400,841.165,1607.35)"><path d="M0.132,-0.65l-0.004,0l0,0.65l-0.034,0l0,-0.698l0.052,0l0.322,0.648l0.004,0l0,-0.648l0.034,0l0,0.698l-0.052,0l-0.322,-0.65Z" style="fill:#231f20;fill-rule:nonzero;"/></g><g transform="matrix(400,0,0,400,1101.16,1607.35)"><path d="M0.117,0l-0.064,-0.698l0.033,0l0.061,0.661l0.005,0l0.127,-0.455l0.043,0l0.127,0.455l0.005,0l0.061,-0.661l0.032,0l-0.064,0.698l-0.058,0l-0.123,-0.445l-0.004,0l-0.123,0.445l-0.058,0Z" style="fill:#231f20;fill-rule:nonzero;"/></g><g transform="matrix(400,0,0,400,1361.16,1607.35)"><path d="M0.282,0l0,-0.289l-0.257,-0.409l0.042,0l0.232,0.371l0.003,0l0.232,-0.371l0.041,0l-0.257,0.409l0,0.289l-0.036,0Z" style="fill:#231f20;fill-rule:nonzero;"/></g></g><g id="Strikethrough"><path d="M2.121,17.008l328.819,0" style="fill:none;stroke:#231f20;stroke-width:3px;"/><path d="M2.121,112.496l328.819,0" style="fill:none;stroke:#231f20;stroke-width:3px;"/><path d="M2.121,207.984l328.819,0" style="fill:none;stroke:#231f20;stroke-width:3px;"/><path d="M2.121,51.024l328.819,0" style="fill:none;stroke:#231f20;stroke-width:3px;"/><path d="M2.121,146.512l328.819,0" style="fill:none;stroke:#231f20;stroke-width:3px;"/><path d="M2.121,242l328.819,0" style="fill:none;stroke:#231f20;stroke-width:3px;"/></g></svg>