<?xml version="1.0" encoding="UTF-8" standalone="no"?>
<!DOCTYPE svg PUBLIC "-//W3C//DTD SVG 1.1//EN" "http://www.w3.org/Graphics/SVG/1.1/DTD/svg11.dtd">
<svg width="100%" height="100%" viewBox="0 0 1475 367" version="1.1" xmlns="http://www.w3.org/2000/svg" xmlns:xlink="http://www.w3.org/1999/xlink" xml:space="preserve" xmlns:serif="http://www.serif.com/" style="fill-rule:evenodd;clip-rule:evenodd;stroke-linejoin:round;stroke-miterlimit:2;">
    <g transform="matrix(1,0,0,1,-222.978,-356.96)">
        <g>
            <g transform="matrix(0.809914,0,0.431834,0.809914,-225.837,208.835)">
                <rect x="915.222" y="182.89" width="118" height="452" style="fill:#202020;"/>
            </g>
            <g transform="matrix(0.809914,0,0,0.809914,-518.273,208.835)">
                <rect x="915.222" y="182.89" width="118" height="452" style="fill:#202020;"/>
            </g>
            <path d="M456.508,356.96L552.078,540L504.293,631.52L456.508,723.04L360.938,723.04L456.508,540L360.938,356.96L456.508,356.96Z" style="fill:#202020;"/>
            <g transform="matrix(-0.809914,0,-0.431834,0.809914,2517.25,208.835)">
                <rect x="915.222" y="182.89" width="118" height="452" style="fill:#202020;"/>
            </g>
            <g transform="matrix(-0.809914,0,-0.431834,0.809914,2184.05,208.835)">
                <rect x="915.222" y="182.89" width="118" height="452" style="fill:#202020;"/>
            </g>
            <g transform="matrix(-0.809914,0,-0.431834,0.809914,2038.67,208.835)">
                <rect x="915.222" y="182.89" width="118" height="452" style="fill:#202020;"/>
            </g>
            <g transform="matrix(0.912694,0,0,0.814336,106.785,116.45)">
                <rect x="534.25" y="725.993" width="104.712" height="18.897" style="fill:#202020;"/>
            </g>
            <g transform="matrix(0.912694,0,0,0.814336,301.974,-234.243)">
                <rect x="534.25" y="725.993" width="104.712" height="18.897" style="fill:#202020;"/>
            </g>
            <g transform="matrix(0.912694,0,0,0.814336,440.074,-234.243)">
                <rect x="534.25" y="725.993" width="104.712" height="18.897" style="fill:#202020;"/>
            </g>
            <g transform="matrix(0.912694,0,0,0.814336,918.657,-234.243)">
                <rect x="534.25" y="725.993" width="104.712" height="18.897" style="fill:#202020;"/>
            </g>
        </g>
    </g>
</svg>
