<?xml version="1.0" encoding="UTF-8" standalone="no"?><!DOCTYPE svg PUBLIC "-//W3C//DTD SVG 1.1//EN" "http://www.w3.org/Graphics/SVG/1.1/DTD/svg11.dtd"><svg width="100%" height="100%" viewBox="0 0 815 70" version="1.1" xmlns="http://www.w3.org/2000/svg" xmlns:xlink="http://www.w3.org/1999/xlink" xml:space="preserve" xmlns:serif="http://www.serif.com/" style="fill-rule:evenodd;clip-rule:evenodd;stroke-linecap:square;stroke-linejoin:round;stroke-miterlimit:1.5;"><path d="M77.284,35.712l-32.64,0l0,32.448l-3.456,0l0,-67.008l3.456,0l0,31.392l32.64,0l0,-31.392l3.456,0l0,67.008l-3.456,0l0,-32.448Z" style="fill:#231f20;fill-rule:nonzero;"/><path d="M108.004,68.16l-3.456,0l0,-67.008l23.616,0c5.696,0 10,1.644 12.912,4.931c2.912,3.288 4.368,7.74 4.368,13.358c0,5.49 -1.408,9.863 -4.224,13.119c-2.816,3.255 -6.944,4.947 -12.384,5.075l-2.784,0l19.2,30.525l-4.032,0l-19.008,-30.432l-14.208,0l0,30.432Zm20.16,-33.408c2.304,0 4.304,-0.352 6,-1.056c1.696,-0.704 3.104,-1.648 4.224,-2.832c1.12,-1.184 1.952,-2.576 2.496,-4.176c0.544,-1.6 0.816,-3.296 0.816,-5.088l0,-4.224c0,-1.728 -0.272,-3.392 -0.816,-4.992c-0.544,-1.6 -1.376,-2.992 -2.496,-4.176c-1.12,-1.184 -2.528,-2.128 -4.224,-2.832c-1.696,-0.704 -3.696,-1.056 -6,-1.056l-20.16,0l0,30.432l20.16,0Z" style="fill:#231f20;fill-rule:nonzero;"/><path d="M170.404,68.16l-3.456,0l0,-67.008l23.616,0c5.696,0 10,1.644 12.912,4.931c2.912,3.288 4.368,7.74 4.368,13.358c0,5.49 -1.408,9.863 -4.224,13.119c-2.816,3.255 -6.944,4.947 -12.384,5.075l-2.784,0l19.2,30.525l-4.032,0l-19.008,-30.432l-14.208,0l0,30.432Zm20.16,-33.408c2.304,0 4.304,-0.352 6,-1.056c1.696,-0.704 3.104,-1.648 4.224,-2.832c1.12,-1.184 1.952,-2.576 2.496,-4.176c0.544,-1.6 0.816,-3.296 0.816,-5.088l0,-4.224c0,-1.728 -0.272,-3.392 -0.816,-4.992c-0.544,-1.6 -1.376,-2.992 -2.496,-4.176c-1.12,-1.184 -2.528,-2.128 -4.224,-2.832c-1.696,-0.704 -3.696,-1.056 -6,-1.056l-20.16,0l0,30.432l20.16,0Z" style="fill:#231f20;fill-rule:nonzero;"/><path d="M246.436,68.16l0,-27.744l-24.672,-39.264l4.032,0l22.272,35.616l0.288,0l22.272,-35.616l3.936,0l-24.672,39.264l0,27.744l-3.456,0Z" style="fill:#231f20;fill-rule:nonzero;"/><path d="M292.996,68.16l-6.144,-67.008l3.168,0l5.856,63.456l0.48,0l12.192,-43.68l4.128,0l12.192,43.68l0.48,0l5.856,-63.456l3.072,0l-6.144,67.008l-5.568,0l-11.808,-42.72l-0.384,0l-11.808,42.72l-5.568,0Z" style="fill:#231f20;fill-rule:nonzero;"/><path d="M357.604,68.16l0,-67.008l3.456,0l0,63.84l33.984,0l0,3.168l-37.44,0Z" style="fill:#231f20;fill-rule:nonzero;"/><path d="M435.652,69.312c-3.008,0 -5.68,-0.281 -8.016,-0.842c-2.336,-0.561 -4.432,-1.345 -6.288,-2.352c-1.856,-1.007 -3.504,-2.198 -4.944,-3.574c-1.44,-1.376 -2.768,-2.864 -3.984,-4.464l2.688,-2.112c2.368,3.136 5.104,5.616 8.208,7.44c3.104,1.824 7.216,2.736 12.336,2.736c5.824,0 10.336,-1.306 13.536,-3.917c3.2,-2.612 4.8,-6.402 4.8,-11.37c0,-2.484 -0.384,-4.585 -1.152,-6.305c-0.768,-1.719 -1.824,-3.152 -3.168,-4.299c-1.344,-1.146 -2.928,-2.038 -4.752,-2.675c-1.824,-0.637 -3.792,-1.115 -5.904,-1.433l-7.68,-1.248c-3.392,-0.577 -6.192,-1.442 -8.4,-2.595c-2.208,-1.154 -3.952,-2.5 -5.232,-4.038c-1.28,-1.538 -2.192,-3.252 -2.736,-5.143c-0.544,-1.891 -0.816,-3.83 -0.816,-5.817c0,-5.832 1.92,-10.174 5.76,-13.026c3.84,-2.852 8.992,-4.278 15.456,-4.278c5.44,0 9.84,0.88 13.2,2.64c3.36,1.76 6.032,4.08 8.016,6.96l-2.592,2.208c-1.984,-2.816 -4.448,-4.96 -7.392,-6.432c-2.944,-1.472 -6.752,-2.208 -11.424,-2.208c-5.504,0 -9.792,1.162 -12.864,3.487c-3.072,2.324 -4.608,5.842 -4.608,10.554c0,2.356 0.368,4.362 1.104,6.018c0.736,1.656 1.76,3.041 3.072,4.155c1.312,1.114 2.864,2.006 4.656,2.675c1.792,0.669 3.776,1.162 5.952,1.48l7.584,1.248c3.456,0.577 6.304,1.459 8.544,2.644c2.24,1.186 4.032,2.579 5.376,4.181c1.344,1.602 2.272,3.365 2.784,5.287c0.512,1.923 0.768,3.877 0.768,5.863c0,6.088 -1.952,10.702 -5.856,13.842c-3.904,3.14 -9.248,4.71 -16.032,4.71Z" style="fill:#231f20;fill-rule:nonzero;"/><path d="M481.636,5.76l-0.384,0l0,62.4l-3.264,0l0,-67.008l4.992,0l30.912,62.208l0.384,0l0,-62.208l3.264,0l0,67.008l-4.992,0l-30.912,-62.4Z" style="fill:#231f20;fill-rule:nonzero;"/><path d="M541.444,1.152l17.76,0c8.064,0 13.952,2.816 17.664,8.448c3.712,5.632 5.568,13.984 5.568,25.056c0,11.072 -1.856,19.424 -5.568,25.056c-3.712,5.632 -9.6,8.448 -17.664,8.448l-17.76,0l0,-67.008Zm17.76,63.84c6.72,0 11.632,-2.368 14.736,-7.104c3.104,-4.736 4.656,-11.296 4.656,-19.68l0,-7.104c0,-8.384 -1.552,-14.944 -4.656,-19.68c-3.104,-4.736 -8.016,-7.104 -14.736,-7.104l-14.304,0l0,60.672l14.304,0Z" style="fill:#231f20;fill-rule:nonzero;"/><path d="M606.436,5.76l-0.384,0l0,62.4l-3.264,0l0,-67.008l4.992,0l30.912,62.208l0.384,0l0,-62.208l3.264,0l0,67.008l-4.992,0l-30.912,-62.4Z" style="fill:#231f20;fill-rule:nonzero;"/><path d="M667.396,68.16l-6.144,-67.008l3.168,0l5.856,63.456l0.48,0l12.192,-43.68l4.128,0l12.192,43.68l0.48,0l5.856,-63.456l3.072,0l-6.144,67.008l-5.568,0l-11.808,-42.72l-0.384,0l-11.808,42.72l-5.568,0Z" style="fill:#231f20;fill-rule:nonzero;"/><path d="M745.636,68.16l0,-27.744l-24.672,-39.264l4.032,0l22.272,35.616l0.288,0l22.272,-35.616l3.936,0l-24.672,39.264l0,27.744l-3.456,0Z" style="fill:#231f20;fill-rule:nonzero;"/><path d="M2.121,17.648l810.709,0" style="fill:none;stroke:#231f20;stroke-width:3px;"/><path d="M2.121,51.664l810.709,0" style="fill:none;stroke:#231f20;stroke-width:3px;"/></svg>