<?xml version="1.0" encoding="UTF-8" standalone="no"?>
<!DOCTYPE svg PUBLIC "-//W3C//DTD SVG 1.1//EN" "http://www.w3.org/Graphics/SVG/1.1/DTD/svg11.dtd">
<svg fill="#fff" width="100%" height="100%" viewBox="0 0 260 121" version="1.1" xmlns="http://www.w3.org/2000/svg" xmlns:xlink="http://www.w3.org/1999/xlink" xml:space="preserve" xmlns:serif="http://www.serif.com/" style="fill-rule:evenodd;clip-rule:evenodd;stroke-linejoin:round;stroke-miterlimit:2;">
    <g transform="matrix(1,0,0,1,-270,-239.887)">
        <g transform="matrix(1,0,0,1,-177.816,-48.4838)">
            <g transform="matrix(1.06301,0,0,1.06301,161.594,29.5801)">
                <path d="M459.245,255.75L423.334,356.55L391.234,266.1L359.134,356.55L338.645,299.039L277.506,299.25L277.506,352.5L269.256,352.5L269.256,247.5L277.506,247.5L277.506,291.45L335.941,291.45L320.284,247.5L329.434,247.5L359.584,335.25L391.234,243.45L422.884,335.25L453.034,247.5C453.034,247.5 444.451,247.5 479.144,247.5C513.838,247.5 513.844,281.841 513.844,299.893C513.844,317.946 513.795,352.5 479.144,352.5C444.493,352.5 459.245,352.5 459.245,352.5L459.245,344.25C459.245,344.25 453.051,344.25 479.144,344.25C505.237,344.25 505.67,318.529 505.67,299.893C505.67,281.258 504.926,255.75 479.144,255.75C453.363,255.75 459.245,255.75 459.245,255.75Z" style="fill-rule:nonzero;"/>
            </g>
        </g>
    </g>
</svg>
