<?xml version="1.0" standalone="no"?>
<!DOCTYPE svg PUBLIC "-//W3C//DTD SVG 20010904//EN"
 "http://www.w3.org/TR/2001/REC-SVG-20010904/DTD/svg10.dtd">
<svg version="1.0" xmlns="http://www.w3.org/2000/svg"
 width="200.000000pt" height="200.000000pt" viewBox="0 0 200.000000 200.000000"
 preserveAspectRatio="xMidYMid meet">
<metadata>
Created by potrace 1.11, written by Peter Selinger 2001-2013
</metadata>
<g transform="translate(0.000000,200.000000) scale(0.100000,-0.100000)"
fill="#000000" stroke="none">
<path d="M180 1000 l0 -760 205 0 205 0 0 760 0 760 -205 0 -205 0 0 -760z"/>
<path d="M790 1000 l0 -760 210 0 210 0 0 760 0 760 -210 0 -210 0 0 -760z"/>
<path d="M1410 1000 l0 -760 205 0 205 0 0 760 0 760 -205 0 -205 0 0 -760z"/>
</g>
</svg>
