<svg version="1" xmlns="http://www.w3.org/2000/svg" width="1066.667" height="1066.667" viewBox="0 0 800.000000 800.000000"><path d="M321.9 40.4c-.2.2-4.2.6-8.9 1-4.7.3-9.6.8-11 1-1.4.2-4.7.8-7.5 1.2-2.7.4-5.4.8-6 1-.5.1-3 .5-5.5.9-2.4.4-4.7.8-5 1-.3.2-2.1.6-4 .9-1.9.3-9.1 2.1-16 4.1-49.3 14.4-92.5 39.5-128 74.7-12.6 12.5-15.3 15.5-25.2 27.8-28.5 35.8-49.4 80.3-58.4 124.9-1.4 6.9-2.8 14.6-3 17.1-.3 2.5-.7 5.1-1 5.8-.9 3-1.9 21.8-1.9 38.2 0 18.8 1.1 35.5 3 46 1.8 9.6 2.5 15.3 2 17.2-.8 3.6-1.5 7.9-2.1 12.3-.3 2.2-.7 5.1-1 6.5-1.1 6.4-1.8 20.1-1.9 37 0 21.2.8 33.1 3.1 47 .4 1.9.8 4.8 1.1 6.5.3 1.6 1.1 6.1 2 10 .8 3.8 1.6 7.9 1.9 9.1.9 4.6 6.8 23.5 10.1 32.4 8.2 22 19 43.4 31.4 61.8 6.8 10.1 9.3 13.6 10 14.2.3.3 2.3 2.7 4.4 5.5 11.5 15.3 30.7 34.6 48.5 48.9 2.5 2 5.1 4.1 5.8 4.7 4.3 3.5 23 15.9 31.6 20.8 25.7 14.7 55.8 26.6 82.9 32.6 5.8 1.3 18.6 3.7 22.2 4.1 2.2.3 5.1.7 6.5 1 14 2.6 59.5 2.5 76.8-.1 1.7-.3 4.4-.7 6-.9 1.5-.2 5.5-.9 9-1.5 4.7-.9 7.7-.9 12.5 0 9.1 1.7 15.1 2.5 27.2 3.6 15.3 1.5 59.1.7 64.7-1.2.7-.2 3.3-.6 5.8-.9 7.9-.9 14.5-2.2 28-5.4 31.2-7.5 66.3-22.9 93.6-41.2 54.1-36.4 93.3-85.8 115.8-146.3 4-10.6 10.3-32 11.2-37.7.3-1.9.7-3.7.9-4 .2-.3.6-2.6 1-5 .4-2.5.8-5 .9-5.5.2-.6.6-3.3 1-6 .4-2.8 1-6.1 1.2-7.5 1.2-7.1 1.9-21.4 1.9-37.5 0-22.4-1-35.6-4-52-1.2-6.2-1.3-9.4-.5-14 .6-3.3 1.3-8 1.6-10.5.3-2.5.7-5.1.9-5.8 1.9-5.7 2.7-50.7 1.2-65.7-1-9.8-1.6-15.2-2.2-18.5-.3-1.4-.8-4.3-1.1-6.5-2.1-13.6-8.8-37.6-15.5-55.1-26.4-69.9-81.6-129.8-149.4-162.4-10.5-5-27.1-11.9-34-13.9-2.2-.7-4.9-1.6-6-2.1-2.4-1-19-5.5-26-7.1-6.4-1.4-18.5-3.5-25.5-4.4-21.2-2.7-56.4-2.7-77.5 0-6.9.9-10.9 1.5-12.5 2-4.6 1.3-10 1.4-15.4.4-6.3-1.2-6.7-1.3-15.1-2.3-2.7-.4-6.6-.9-8.5-1.2-3.9-.6-47.6-1.5-48.1-1zm92.2 84.2c16.9 5.7 36.2 15.2 51 25 17.8 11.7 18.1 10.9-4.4 10.9-17.3 0-32.6.8-38.3 1.9-1.2.2-4.5.7-7.5 1.1-3 .3-6.1.8-6.9 1-5 1.4-9.2 1.4-16.8.1-19.2-3.4-28.1-4.1-51.9-4.1-10.5 0-18.9-.3-18.7-.7.8-1.3 15.7-11.4 24.4-16.5 7.5-4.5 14-7.7 27.4-13.8 4.7-2.1 25.6-9.4 27.2-9.4.6-.1 7.2 2 14.5 4.5zm-176.7 14.6c-12.4 13.2-30.7 38.4-38.5 53.3-.9 1.6-3.7 4.3-6.3 6-18.6 11.6-32.8 21.5-43.1 30-6.6 5.4-12.5 10.6-13.2 11.4-.7.9-1.3 1.1-1.3.6 0-2 18.8-33.4 22-36.5.3-.3 3.2-3.9 6.5-8 5.4-6.9 22.3-24.3 28.9-29.8 8.2-6.9 21.2-16 31-21.8 19.2-11.3 20.2-11.7 14-5.2zm329.1-.6c25.9 13.7 52.2 35.2 70.3 57.6 5.8 7.2 18.1 25.1 21.3 30.9 3.8 7 6.9 13.3 6.6 13.5-.1.1-2.9-2.3-6.2-5.3-3.3-3-8.5-7.4-11.5-9.8-5.9-4.8-31.8-22.4-39.1-26.6-3.6-2.1-5.7-4.6-11.3-14-10.1-16.7-22.3-33.2-33.5-45.2-2.4-2.6-4.1-4.7-3.8-4.7.3 0 3.6 1.6 7.2 3.6zM414 244.5c33 11.4 60.9 28.7 86 53.4 26.1 25.8 45 56.2 56.5 90.8l3.7 11.3-3.7 11.2c-2.1 6.2-4.7 13.3-5.8 15.8-13.4 30.3-28.1 52.2-48.7 73-26.1 26.3-54.7 44.2-89.7 56.1-12 4.1-11.8 4.1-21.4 1.1-48.5-15.1-92.9-48.8-121.4-92.2-6.9-10.6-7.2-11.1-14.8-26.5-5.2-10.5-11.3-26.4-13.6-35.1-1-3.7-.7-5.3 2.7-15.5 9.4-27.9 25.1-55.6 43.7-76.9 5.5-6.4 20.9-21.5 26-25.5 2.8-2.2 5.2-4.3 5.5-4.6 1.3-1.6 15.5-11.3 23.5-16.1 17.4-10.5 34.1-17.8 56-24.3 1.6-.5 5.2.5 15.5 4zm-253.5 94.7c0 20.1 1.1 36.1 3 46.8 2.2 11.5 2.4 15.1 1.5 20.1-3.5 18-4.5 30.1-4.5 54.2v19.8l-2.3-2.8c-3.1-3.6-15-21.7-16.2-24.6-.6-1.2-2-3.8-3.2-5.7-4.9-8.1-14-30.4-17.4-42.5-1.3-4.6-1.2-5.5 1.2-13 5.9-18.8 15.3-38.6 25.9-55 4.6-7.1 11.4-16.5 11.9-16.5.1 0 .1 8.7.1 19.2zm482.6-14.9c3 3.9 13 19 15.2 23.2 7.1 13.4 13.4 27.6 17.3 39l4.6 13.5-3.7 11.3c-5.4 16-11.2 28.9-19.9 43.7-4.9 8.4-15.1 23.5-16.4 24.4-.4.2-.7-8.2-.7-18.7 0-24-.7-32.8-4-51.8-1.3-7.3-1.3-11.7-.1-17.4.2-.6.6-3.3 1-6 .4-2.8 1-6.1 1.2-7.5 1.2-7.2 1.9-21.5 1.9-38.3 0-10.3.2-18.7.5-18.7s1.6 1.5 3.1 3.3zM145.5 568.2c8.6 7.7 33.3 25.1 46.6 32.9 3.6 2.1 5.7 4.7 11.2 13.9 9.5 15.6 22 32.5 32 43.5 3 3.3 5.4 6.1 5.3 6.3-.4.4-12.3-6-20.1-10.8-34.3-20.9-64.9-53.9-83-89.4-3.2-6.4-3.2-6.6.8-3 1.7 1.7 5 4.7 7.2 6.6zm516.7-3.1c-13.2 25.8-35.9 53.7-58.2 71.4-4.1 3.3-7.7 6.3-8 6.6-2.2 2.5-34.5 21.9-36.6 21.9-.3 0 2.3-3.3 5.8-7.3 12.8-14.3 25.6-32.2 35.9-49.9 1.7-2.9 4.3-5.4 7.5-7.2 17.7-10.2 38.6-25.3 51.4-37.3 2.4-2.3 4.6-4.1 4.7-3.9.2.1-1 2.7-2.5 5.7zm-256.1 70c3 .5 7.2 1.2 9.4 1.5 2.2.3 5.1.7 6.5.9 9.3 1.4 21 2 37.8 2 10.5 0 19.2.2 19.2.5 0 1.8-18.3 13.9-32.7 21.7-11.9 6.4-31.5 14.3-42.9 17.2-3.6 1-5.3.7-15-2.5-12.4-4.2-24.4-9.3-35.9-15.4-8.2-4.3-29.7-18.3-31.4-20.4-.7-.8 4.1-1.1 18.7-1.1 17.6 0 35.1-.9 38.5-2 .7-.2 3.5-.6 6.2-1 2.8-.3 6.8-1 9-1.4 5.7-1.2 6.6-1.2 12.6 0z"/></svg>